<?xml version="1.0" encoding="utf-8"?>
<!-- Svg Vector Icons : http://www.onlinewebfonts.com/icon -->
<!DOCTYPE svg PUBLIC "-//W3C//DTD SVG 1.1//EN" "http://www.w3.org/Graphics/SVG/1.1/DTD/svg11.dtd">
<svg version="1.1" xmlns="http://www.w3.org/2000/svg" xmlns:xlink="http://www.w3.org/1999/xlink" x="0px" y="0px" viewBox="0 0 1000 1000" enable-background="new 0 0 1000 1000" xml:space="preserve">
<metadata> Svg Vector Icons : http://www.onlinewebfonts.com/icon </metadata>
<g><g transform="translate(0.000000,512.000000) scale(0.100000,-0.100000)"><path d="M4545.9,5009c-604-59.4-1142.9-212.9-1702.8-487.1c-521.6-257-920.4-542.7-1327-955C768.3,2811.4,319.6,1923.6,145,844C95.2,535.2,83.7-197.3,125.9-484.9c94-650,281.9-1231.1,565.7-1745c230.1-418,481.3-751.7,824.6-1100.7c408.5-412.3,792-688.4,1327-953c489-241.6,978-389.3,1553.3-471.7c226.3-32.6,981.8-32.6,1208.1,0c581.1,82.5,1060.4,228.2,1553.3,471.7c535,264.6,918.5,540.7,1327,953c404.6,408.5,657.7,767.1,918.5,1292.5c243.6,492.8,387.4,968.4,471.8,1553.3c40.3,285.7,30.7,1020.2-19.2,1328.9c-88.2,548.4-214.8,945.4-452.6,1432.5c-256.9,521.6-542.7,920.4-954.9,1327C7688.9,4357,6766.5,4817.2,5690.7,4980.2C5451,5016.7,4793.3,5032,4545.9,5009z M5671.5,4558.3c1277.1-199.4,2393.2-922.4,3104.6-2011.6c130.4-199.4,345.2-629,431.5-862.9c90.1-241.6,191.8-632.8,235.9-912.8c24.9-163,34.5-331.7,34.5-652c0-485.1-26.9-703.8-134.2-1121.8c-155.3-607.9-460.2-1211.9-859.1-1706.7c-149.6-186-490.9-525.4-675-673.1c-483.2-385.4-1091.1-688.4-1687.5-841.8c-418-107.4-636.6-134.2-1121.8-134.2c-485.1,0-703.8,26.9-1121.8,134.2C2304.3-3821.5,1059.7-2577,657.1-1004.6C551.6-588.5,524.7-366,522.8,109.5c0,446.8,17.3,621.3,97.8,987.6c291.5,1309.7,1152.5,2414.3,2356.7,3024.1c523.5,264.6,1024,408.4,1649.1,473.6C4795.2,4612,5477.9,4589,5671.5,4558.3z"/><path d="M4902.6,4050.2c-661.6-117-1221.5-441-1382.6-799.6c-63.3-141.9-74.8-258.9-44.1-423.8c88.2-460.2,310.7-885.9,707.6-1348.1c80.5-94,145.7-174.5,145.7-180.3c0-3.8-61.4-57.5-136.2-117l-136.2-109.3l-140,11.5c-255,23-577.2,170.7-719.1,331.7c-122.7,141.9-163,326-191.8,874.4c-23,444.9-30.7,521.6-71,667.3c-61.4,222.4-163,281.9-385.4,224.4c-161.1-42.2-272.3-111.2-441-270.4c-406.5-387.4-699.9-1087.3-726.8-1739.3c-19.2-452.5,80.5-742.1,318.3-922.4c84.4-65.2,366.3-159.2,602.1-199.4c257-46,784.3-26.9,1096.9,36.4c126.6,26.9,235.9,42.2,243.5,36.4c7.7-7.7,23-88.2,36.4-178.3c23-163,21.1-163-30.7-249.3c-155.3-245.4-506.2-477.5-745.9-492.8c-164.9-11.5-324.1,46-832.2,301.1c-458.3,230.1-596.4,280-726.8,264.6c-105.5-11.5-166.8-65.2-207.1-184.1c-149.6-435.3,101.6-1089.2,638.6-1653c559.9-590.6,1165.9-809.2,1547.5-559.9c195.6,126.6,496.7,483.2,661.6,782.4c82.5,151.5,228.2,498.6,280,671.2c19.2,63.3,36.4,118.9,40.3,122.7c1.9,3.8,82.5-23,176.4-57.5l172.6-65.2l47.9-105.5c72.9-163,111.2-337.5,111.2-517.8c3.8-391.2-94-510.1-770.9-945.4c-450.6-289.6-594.5-429.6-594.5-575.3c0-78.6,115.1-228.2,243.5-314.5c253.1-168.7,525.4-226.3,1002.9-210.9c210.9,7.7,375.8,23,494.7,49.9c671.2,147.6,1171.7,464,1309.7,826.5c84.4,222.4,11.5,606-197.5,1025.9c-107.4,218.6-266.6,448.7-481.3,698c-80.6,95.9-147.7,176.4-147.7,182.2s61.4,59.4,136.2,118.9l136.2,109.3l138-11.5c331.8-26.8,694.2-230.1,797.7-446.8c65.2-140,94-339.4,115.1-790.1c34.5-682.7,92.1-859.1,291.5-880.2c103.5-11.5,293.4,49.9,427.6,138.1C8083.9-2577,8425.2-1996,8569-1361.3c55.6,245.5,69.1,648.2,28.8,830.3c-57.5,258.9-163,433.4-318.3,533.1c-103.6,67.1-347.1,145.7-569.5,184.1c-314.5,55.6-849.5,28.8-1223.4-59.5c-63.3-13.4-120.8-26.8-126.6-26.8c-7.7,0-23,82.5-36.4,182.2l-24.9,184.1l72.8,103.5c180.3,262.7,512,469.8,755.5,469.8c149.6,0,326-67.1,770.9-289.6c487.1-243.5,621.3-293.4,751.7-280c109.3,9.6,149.6,42.2,207.1,172.6c67.1,147.7,61.4,439.1-11.5,665.4c-291.5,903.2-1305.9,1775.7-1921.4,1651.1c-176.4-34.5-272.3-94-466-289.6c-304.9-303-519.7-667.3-682.7-1150.6c-42.2-120.8-76.7-224.4-78.6-228.2c-1.9-3.8-82.5,23-176.4,57.5l-172.6,65.2l-47.9,105.5c-113.1,253.1-145.8,571.4-80.5,793.9c28.8,97.8,55.6,136.1,170.7,251.2c76.7,74.8,224.3,193.7,329.8,260.8c492.8,322.1,581,383.5,667.3,458.3c97.8,86.3,166.8,199.4,166.8,274.2c0,67.1-101.6,214.8-195.6,283.8c-132.3,95.9-306.8,170.7-498.6,210.9C5621.7,4100,5186.4,4100,4902.6,4050.2z M5316.8,1030c293.4-101.6,535-366.3,615.6-671.2c34.5-124.6,32.6-356.7,0-481.3c-88.2-329.8-360.5-602.1-690.3-690.3c-124.6-32.6-356.7-34.5-481.3,0c-303,80.5-563.8,316.4-665.4,600.2c-49.8,140-67.1,395-34.5,540.8c76.7,343.3,337.5,615.6,690.3,722.9C4870,1085.6,5192.1,1076,5316.8,1030z"/><path d="M4847,707.8c-174.5-49.9-331.7-186-408.4-356.7c-55.6-122.7-55.6-341.3,0-466c57.5-126.6,182.2-255,310.6-316.4c153.4-74.8,349-74.8,502.4,0c128.5,61.4,253.1,189.8,310.7,316.4c61.3,138.1,57.5,345.2-11.5,485.2c-61.4,126.6-191.8,253.1-310.7,306.8C5130.8,725.1,4956.3,738.5,4847,707.8z"/></g></g>
</svg>